<?xml version="1.0" encoding="utf-8"?>
<svg xmlns="http://www.w3.org/2000/svg" viewBox="-260 -190 520 490" width="520" height="490">
  <polygon points="0,280 -160,20 0,-10 160,20" fill="#1a1a18" stroke="#c9a050" stroke-width="1.5"/>
  <polygon points="-160,20 -240,-30 -80,-80 0,-10" fill="#2a2a25" stroke="#c9a050" stroke-width="1.5"/>
  <polygon points="160,20 240,-30 80,-80 0,-10" fill="#1e1e1a" stroke="#c9a050" stroke-width="1.5"/>
  <polygon points="0,280 -160,20 -240,-30" fill="#141412" stroke="#c9a050" stroke-width="1.5"/>
  <polygon points="0,280 160,20 240,-30" fill="#101010" stroke="#c9a050" stroke-width="1.5"/>
  <polygon points="-80,-80 80,-80 120,-130 40,-170 -40,-170 -120,-130" fill="#2e2e28" stroke="#c9a050" stroke-width="1.5"/>
  <polygon points="-240,-30 -120,-130 -80,-80" fill="#222220" stroke="#c9a050" stroke-width="1.5"/>
  <polygon points="240,-30 120,-130 80,-80" fill="#1a1a16" stroke="#c9a050" stroke-width="1.5"/>
  <polygon points="-240,-30 -200,-100 -120,-130" fill="#282825" stroke="#c9a050" stroke-width="1.5"/>
  <polygon points="240,-30 200,-100 120,-130" fill="#1c1c18" stroke="#c9a050" stroke-width="1.5"/>
  <polygon points="-200,-100 -120,-130 -40,-170" fill="#333330" stroke="#c9a050" stroke-width="1.5"/>
  <polygon points="200,-100 120,-130 40,-170" fill="#252522" stroke="#c9a050" stroke-width="1.5"/>
  <polygon points="-240,-30 -200,-100 -120,-130 -80,-80" fill="#262623" stroke="#c9a050" stroke-width="1.5"/>
  <polygon points="240,-30 200,-100 120,-130 80,-80" fill="#1e1e1a" stroke="#c9a050" stroke-width="1.5"/>
  <polygon points="-200,-100 -40,-170 -120,-130" fill="#303028" stroke="#c9a050" stroke-width="1.5"/>
  <polygon points="200,-100 40,-170 120,-130" fill="#222220" stroke="#c9a050" stroke-width="1.5"/>
</svg>
