<?xml version="1.0" encoding="utf-8" ?>
<svg xmlns="http://www.w3.org/2000/svg" width="280" height="48" viewBox="0 0 280 48">
  <!-- New GRS Monogram - scaled to fit -->
  <g transform="translate(0, 0) scale(0.047)">
    <path fill="#1a1a1a" d="M503.646 30.4723C505.674 26.4796 509.552 20.4992 512.208 16.9396C514.798 20.5824 516.945 23.4621 518.876 27.5182C526.668 38.1144 534.783 50.9734 542.168 62.0784L590.08 134.969L722.171 335.261L807.912 465.223C814.314 474.962 820.775 484.661 827.294 494.321C830.707 499.422 836.324 507.299 838.634 512.535C832.909 522.599 823.619 535.667 817.091 545.476L778.838 603.325L642.486 809.451L552.294 945.899L526.908 984.357C524.588 987.895 516.883 1000.27 514.89 1002.59C513.797 1004.65 513.153 1005.58 511.776 1007.54C508.528 1002.66 503.094 995.166 500.667 990.033C498.93 988.87 441.002 899.257 433.894 888.361L275.163 647.095L222.404 566.682C211.169 549.459 198.123 528.742 186.266 512.185C197.206 496.432 207.641 479.951 218.172 463.918L269.667 385.647L407.394 176.232C428.975 142.859 450.848 109.675 473.01 76.6856L493.599 45.5405C496.091 41.7665 501.027 33.7777 503.646 30.4723Z"/>
    <path fill="#D4A853" d="M503.646 30.4723C505.674 26.4796 509.552 20.4992 512.208 16.9396C514.798 20.5824 516.945 23.4621 518.876 27.5182C516.435 25.2039 514.944 22.2717 513.085 19.4322C513.051 23.0078 513.033 27.8234 512.523 31.3625L511.737 31.054C493.583 61.1955 472.282 91.8793 452.681 121.238L398.032 204.452L195.765 512.382C223.654 553.965 251.242 595.748 278.528 637.729L412.019 840.519L474.646 936.156L498.13 972.133C501.572 977.371 507.672 987.134 511.428 991.687L512.465 991.942C512.506 993.33 512.37 1003.9 512.623 1004.27C513.221 1004.02 514.301 1003.04 514.89 1002.59C513.797 1004.65 513.153 1005.58 511.776 1007.54C508.528 1002.66 503.094 995.166 500.667 990.033C498.93 988.87 441.002 899.257 433.894 888.361L275.163 647.095L222.404 566.682C211.169 549.459 198.123 528.742 186.266 512.185C197.206 496.432 207.641 479.951 218.172 463.918L269.667 385.647L407.394 176.232C428.975 142.859 450.848 109.675 473.01 76.6856L493.599 45.5405C496.091 41.7665 501.027 33.7777 503.646 30.4723Z"/>
    <path fill="#D4A853" d="M512.523 31.3625C513.033 27.8234 513.051 23.0078 513.085 19.4322C514.944 22.2717 516.435 25.2039 518.876 27.5182C526.668 38.1144 534.783 50.9734 542.168 62.0784L590.08 134.969L722.171 335.261L807.912 465.223C814.314 474.962 820.775 484.661 827.294 494.321C830.707 499.422 836.324 507.299 838.634 512.535C832.909 522.599 823.619 535.667 817.091 545.476L778.838 603.325L642.486 809.451L552.294 945.899L526.908 984.357C524.588 987.895 516.883 1000.27 514.89 1002.59C514.301 1003.04 513.221 1004.02 512.623 1004.27C512.37 1003.9 512.506 993.33 512.465 991.942C516.819 984.837 523.466 976.152 528.244 968.791L590.897 873.642L829.738 512.23C827.192 507.497 822.252 500.957 819.062 496.198L796.968 462.909L725.816 354.92L512.523 31.3625Z"/>
  </g>
  <!-- Wordmark -->
  <text x="56" y="32" font-family="Georgia, 'Cormorant Garamond', serif" font-size="22" font-weight="600" fill="#1a1a1a" letter-spacing="0.12em">GREENRIDGE</text>
</svg>
