<?xml version="1.0" encoding="utf-8" ?><svg xmlns="http://www.w3.org/2000/svg" xmlns:xlink="http://www.w3.org/1999/xlink" width="1024" height="1024" viewBox="0 0 1024 1024"><path fill="#f5f5f5" d="M503.646 30.4723C505.674 26.4796 509.552 20.4992 512.208 16.9396C514.798 20.5824 516.945 23.4621 518.876 27.5182C526.668 38.1144 534.783 50.9734 542.168 62.0784L590.08 134.969L722.171 335.261L807.912 465.223C814.314 474.962 820.775 484.661 827.294 494.321C830.707 499.422 836.324 507.299 838.634 512.535C832.909 522.599 823.619 535.667 817.091 545.476L778.838 603.325L642.486 809.451L552.294 945.899L526.908 984.357C524.588 987.895 516.883 1000.27 514.89 1002.59C513.797 1004.65 513.153 1005.58 511.776 1007.54C508.528 1002.66 503.094 995.166 500.667 990.033C498.93 988.87 441.002 899.257 433.894 888.361L275.163 647.095L222.404 566.682C211.169 549.459 198.123 528.742 186.266 512.185C197.206 496.432 207.641 479.951 218.172 463.918L269.667 385.647L407.394 176.232C428.975 142.859 450.848 109.675 473.01 76.6856L493.599 45.5405C496.091 41.7665 501.027 33.7777 503.646 30.4723ZM356.205 508.95C360.092 509.446 366.97 509.137 371.114 509.076L394.788 508.808L472.388 508.052C483.101 508.019 498.222 507.617 508.779 508.229C508.156 494.069 508.541 481.423 508.747 467.25L509.393 413.344L510.011 236.383L509.985 129.618C509.789 116.976 509.716 104.331 509.766 91.6872C509.768 88.8205 509.399 81.4843 509.926 79.1354C510.727 75.5508 510.542 74.0552 510.546 70.3185L508.279 71.7778C507.778 74.9597 507.57 75.1561 507.961 78.2589C507.697 79.5614 507.656 80.9717 506.921 81.8154L506.532 79.413C505.54 82.6809 499.331 105.11 499.783 106.855L500.819 105.208C501.272 107.655 497.495 116.702 496.597 119.818C492.76 133.129 489.451 146.35 486.198 159.8C474.274 207.427 462.755 255.155 451.643 302.978L441.545 346.794C439.585 355.539 437.566 366.94 434.382 375.057C433.412 377.53 428.723 384.953 427.188 387.485C423.305 393.895 419.467 400.331 415.673 406.793L373.918 478.373C368.873 487.101 360.598 500.347 356.205 508.95ZM669.082 515.548L664.075 516.044C614.394 515.159 564.189 517.22 514.846 515.781C515.781 553.315 514.84 589.566 515.021 627.022L515.601 934.492C515.119 941.359 515.453 952.059 515.477 959.308C516.182 957.187 516.74 956.302 516.764 953.94C517.342 951.632 520.604 935.637 520.951 935.276L521.359 936.481C522.114 933.62 526.032 918.567 525.787 916.362C526.428 907.287 531.348 895.792 533.72 886.845C535.052 881.82 536.731 876.542 537.572 871.426C537.904 869.408 537.608 867.292 538.037 865.296C538.706 862.184 540.214 859.098 541.02 855.97C542.764 849.206 554.444 799.926 554.081 797.164C553.847 795.386 553.879 794.037 554.674 792.382L555.122 793.223C556.152 791.162 558.339 779.82 559.03 776.819C561.944 764.182 564.624 751.479 567.226 738.78C568.688 731.648 569.66 722.99 571.452 716.32L571.432 717.216C571.845 715.965 572.436 713.249 572.515 711.996C572.782 707.801 574.024 703.805 575.268 699.8L575.34 699.962C575.658 699.368 576.414 695.58 576.615 694.668L576.426 695C576.59 689.176 579.786 679.959 581.307 673.975C584.239 663.23 584.307 650.661 591.197 641.472C595.197 636.137 598.284 630.725 601.797 625.121C603.699 622.088 602.781 621.41 604.74 618.578L605.08 619.439C605.77 618.846 621.086 593.524 621.981 590.886C623.576 586.185 627.659 582.559 630.642 578.114C634.682 572.09 637.981 564.08 641.47 558.603C649.954 545.283 661.875 529.154 669.082 515.548ZM465.324 122.485C460.504 129.691 452.071 142.614 448.556 149.957L448.954 149.455C445.256 157.15 440.203 163.959 435.504 171.103C432.001 176.428 428.404 182.256 424.495 187.238L424.505 187.062C418.337 196.852 411.757 209.798 404.041 218.826C398.813 224.943 395.233 230.873 390.972 237.539L391.333 237.667L392.474 236.978C392.238 238.388 377.777 259.747 375.823 262.749C357.817 290.403 340.238 318.438 321.303 345.449C320.136 347.114 319.112 348.485 318.044 350.258C315.571 354.363 307.679 369.157 303.885 370.4C302.073 373.127 302.902 374.062 301.09 376.794C287.013 398.015 272.962 419.26 258.848 440.456C258.743 441.1 256.894 441.914 256.834 441.974C251.745 447.051 247.822 454.558 243.923 460.703C243.143 461.931 243.916 463.304 241.956 465.895C241.393 465.621 241.67 465.806 241.149 465.304C239.585 466.844 228.972 482.003 228.089 483.938C228.567 483.825 229.002 483.62 229.48 483.533C230.157 484.875 224.146 490.408 223.125 491.496L222.325 492.364C226.333 490.02 229.688 487.686 233.903 485.663C232.83 487.204 253.04 473.944 253.477 473.704C309.619 442.883 364.106 408.179 418.953 375.057C423.323 372.418 427.416 370.575 431.823 367.639C429.759 365.014 427.016 361.732 424.689 359.372L424.342 360.385C423.131 359.606 422.418 358.485 422.02 357.095C419.535 348.419 396.886 322.459 389.949 314.617C389.508 310.114 393.93 302.802 396.031 298.762C396.876 297.136 398.286 295.963 398.923 294.016L398.061 293.365C398.405 291.966 398.343 292.047 399.276 290.957L399.73 292.322C405.848 280.474 407.784 268.718 414.454 256.44L414.34 257.187C418.915 249.904 418.942 245.926 421.879 239.02C428.151 224.52 433.151 209.128 441.432 195.614C442.147 194.447 442.026 194.141 441.651 192.797C445.961 182.421 450.432 171.88 454.984 161.608C456.996 157.067 458.742 159.817 459.995 151.431L459.705 151L460.123 149.979C461.717 145.284 465.051 138.134 466.994 133.261C470.517 124.424 474.023 115.377 477.661 106.61C479.477 102.726 478.978 101.502 476.888 105.797C475.427 108.21 467.524 121.918 465.871 122.768L465.324 122.485ZM426.085 646.509L426.654 647.31L427.341 647.064C427.22 645.671 426.148 644.8 425.168 643.683C425.528 642.941 425.281 643.256 425.903 642.733C424.337 638.077 419.355 633.736 417.061 629.422C398.086 593.727 375.306 559.916 354.755 525.168C354.714 525.099 353.48 524.685 353.314 524.633C351.594 522.253 351.981 519.927 349.81 516.626C338.459 517.544 324.211 517.355 312.636 517.134C282.065 516.551 250.316 518.039 219.874 516.727C217.044 516.851 214.711 516.957 211.858 516.84C215.695 519.076 215.025 518.682 218.019 521.324C225.164 527.63 237.21 534.372 245.501 539.37L297.508 570.459L374.852 617.084C388.612 625.43 402.327 633.862 416.101 642.187C418.426 643.592 420.928 644.875 423.653 645.221C424.688 645.35 425.275 645.882 426.085 646.509ZM675.471 508.367C692.881 507.423 711.432 508.273 728.44 507.311C736.878 506.844 806.268 506.2 807.2 505.326L805.679 504.19C803.506 503.056 802.828 502.808 801.052 501.2L801.442 500.302C800.263 499.715 800.387 499.804 799.087 499.732C782.499 488.127 763.259 476.739 745.796 466.268L681.526 427.815C669.452 420.615 657.32 413.362 645.267 406.131C628.535 396.091 611.21 384.568 594.03 375.356C611.141 404.131 628.512 432.751 646.141 461.212C653.442 472.988 662.38 488.433 670.131 499.45L675.471 508.367ZM496.714 949.684C496.91 950.146 498.276 953.744 498.745 953.709C499.123 953.184 498.115 949.256 497.917 948.544L496.714 949.684ZM532.398 93.8387L531.848 96.4384C536.445 115.697 540.273 134.709 544.575 153.954L571.453 276.261C575.506 295.522 579.734 314.642 584.254 333.798C586.669 344.031 588.924 359.847 592.306 369.243C595.132 365.43 595.437 364.302 597.381 360.047C597.632 359.497 598.881 359.024 599.477 358.789C600.552 357.283 604.446 352.166 605.04 350.925C609.422 341.775 632.501 315.788 632.913 307.333C630.744 301.219 627.264 294.997 624.666 288.987C618.987 276.142 613.527 263.514 606.355 251.437C603.311 246.311 602.508 239.369 600.082 234.487C592.815 219.872 586.767 203.234 579.267 188.867L579.087 190.356C576.903 189.026 569.804 169.357 568.106 165.642C565.072 159.003 561.257 152.538 558.086 145.95C551.306 131.752 544.785 117.433 538.526 102.998C537.384 100.961 535.559 96.3842 534.933 95.4304C533.771 92.5287 532.119 87.4703 532.398 93.8387ZM801.485 533.233C800.083 534.114 792.395 539.112 791.541 538.946C791.841 538.38 792.166 537.87 792.412 537.273C758.333 556.257 723.502 578.832 689.783 598.73L629.311 635.193C620.081 640.77 610.372 645.769 601.409 651.757C599.312 653.157 598.334 654.972 597.42 657.281C600.689 662.728 611.332 676.134 615.57 681.444C621.645 689.058 630.309 701.119 636.662 708.169L724.813 615.465C740.605 598.938 757.027 583.485 771.34 565.523C775.701 560.049 784.06 554.589 789.109 548.395C789.375 544.702 798.723 536.18 801.485 533.233ZM483.944 888.227C481.692 879.783 480.166 871.239 478.277 862.717C474.256 844.864 470.357 826.984 466.582 809.077C458.711 772.326 449.619 735.815 442.496 698.898C440.796 690.088 438.819 681.526 436.103 672.996C434.756 668.764 435.074 659.301 431.844 655.944L430.468 655.703C425.976 660.559 421.316 668.315 417.333 673.848C407.772 687.13 398.444 702.457 388.362 715.125C395.327 731.57 403.308 748.081 410.82 764.318C424.615 794.846 438.828 825.183 453.454 855.322C466.118 881.956 476.824 910.411 491.771 935.869C492.787 937.599 493.293 940.819 494.297 943.034C495.092 937.23 492.726 933.9 491.985 928.841C490.645 919.697 482.513 896.012 483.944 888.227Z"/><path fill="#D1AB72" d="M503.646 30.4723C505.674 26.4796 509.552 20.4992 512.208 16.9396C514.798 20.5824 516.945 23.4621 518.876 27.5182C516.435 25.2039 514.944 22.2717 513.085 19.4322C513.051 23.0078 513.033 27.8234 512.523 31.3625L511.737 31.054C493.583 61.1955 472.282 91.8793 452.681 121.238L398.032 204.452L195.765 512.382C223.654 553.965 251.242 595.748 278.528 637.729L412.019 840.519L474.646 936.156L498.13 972.133C501.572 977.371 507.672 987.134 511.428 991.687L512.465 991.942C512.506 993.33 512.37 1003.9 512.623 1004.27C513.221 1004.02 514.301 1003.04 514.89 1002.59C513.797 1004.65 513.153 1005.58 511.776 1007.54C508.528 1002.66 503.094 995.166 500.667 990.033C498.93 988.87 441.002 899.257 433.894 888.361L275.163 647.095L222.404 566.682C211.169 549.459 198.123 528.742 186.266 512.185C197.206 496.432 207.641 479.951 218.172 463.918L269.667 385.647L407.394 176.232C428.975 142.859 450.848 109.675 473.01 76.6856L493.599 45.5405C496.091 41.7665 501.027 33.7777 503.646 30.4723Z"/><path fill="#806437" d="M500.667 990.033C503.394 992.254 508.994 1001.67 510.909 1004.91C511.584 999.595 511.631 997.171 511.428 991.687L512.465 991.942C512.506 993.33 512.37 1003.9 512.623 1004.27C513.221 1004.02 514.301 1003.04 514.89 1002.59C513.797 1004.65 513.153 1005.58 511.776 1007.54C508.528 1002.66 503.094 995.166 500.667 990.033Z"/><path fill="#806437" d="M503.646 30.4723C505.674 26.4796 509.552 20.4992 512.208 16.9396C514.798 20.5824 516.945 23.4621 518.876 27.5182C516.435 25.2039 514.944 22.2717 513.085 19.4322C513.051 23.0078 513.033 27.8234 512.523 31.3625L511.737 31.054C512.136 28.0488 512.012 22.2133 511.945 19.0692L511.198 20.0461C508.579 23.4199 506.577 28.1324 503.646 30.4723Z"/><path fill="#D1AB72" d="M512.523 31.3625C513.033 27.8234 513.051 23.0078 513.085 19.4322C514.944 22.2717 516.435 25.2039 518.876 27.5182C526.668 38.1144 534.783 50.9734 542.168 62.0784L590.08 134.969L722.171 335.261L807.912 465.223C814.314 474.962 820.775 484.661 827.294 494.321C830.707 499.422 836.324 507.299 838.634 512.535C832.909 522.599 823.619 535.667 817.091 545.476L778.838 603.325L642.486 809.451L552.294 945.899L526.908 984.357C524.588 987.895 516.883 1000.27 514.89 1002.59C514.301 1003.04 513.221 1004.02 512.623 1004.27C512.37 1003.9 512.506 993.33 512.465 991.942C516.819 984.837 523.466 976.152 528.244 968.791L590.897 873.642L829.738 512.23C827.192 507.497 822.252 500.957 819.062 496.198L796.968 462.909L725.816 354.92L512.523 31.3625Z"/><path fill="#F2C182" fill-opacity="0.039215688" d="M514.846 515.781C564.189 517.22 614.394 515.159 664.075 516.044C663.882 516.175 663.694 516.314 663.496 516.438C660.629 518.224 564.957 518.001 550.26 518.001C544.966 518 521.732 517.542 517.814 518.797C516.559 525.621 517.011 543.316 516.976 550.844L517.009 620.241L517.013 871.594C517.023 879.401 516.747 941.494 517.414 942.755L517.922 942.614L518.028 941.916C518.577 938.392 523.545 918.097 524.777 915.758L525.557 916.331L525.787 916.362C526.032 918.567 522.114 933.62 521.359 936.481L520.951 935.276C520.604 935.637 517.342 951.632 516.764 953.94C515.315 951.445 516.046 939.014 515.601 934.492L515.021 627.022C514.84 589.566 515.781 553.315 514.846 515.781Z"/><path fill="#F2C182" fill-opacity="0.011764706" d="M670.131 499.45C670.552 498.691 670.94 498.003 671.395 497.264C673.02 499.494 675.694 504.806 678.043 505.76C693.027 505.277 801.776 506.446 805.679 504.19L807.2 505.326C806.268 506.2 736.878 506.844 728.44 507.311C711.432 508.273 692.881 507.423 675.471 508.367L670.131 499.45Z"/><path fill="#B78B54" d="M489.231 82.007L490.326 82.0086C487.161 90.4437 481.528 102.951 477.917 111.216C475.041 117.797 463.923 146.629 460.123 149.979C461.717 145.284 465.051 138.134 466.994 133.261C470.517 124.424 474.023 115.377 477.661 106.61C479.477 102.726 478.978 101.502 476.888 105.797C475.427 108.21 467.524 121.918 465.871 122.768L465.324 122.485C469.127 113.059 483.685 92.5055 489.231 82.007Z"/><path fill="#B78B54" d="M801.442 500.302C806.093 502.419 809.018 504.19 813.075 507.322C785.952 508.159 755.79 507.697 728.44 507.311C736.878 506.844 806.268 506.2 807.2 505.326L805.679 504.19C803.506 503.056 802.828 502.808 801.052 501.2L801.442 500.302Z"/><path fill="#D1AB72" d="M483.944 888.227C486.328 895.992 488.178 906.21 490.069 914.277C492.742 925.677 495.48 937.096 497.917 948.544L496.714 949.684C495.77 947.429 494.814 945.424 494.297 943.034C495.092 937.23 492.726 933.9 491.985 928.841C490.645 919.697 482.513 896.012 483.944 888.227Z"/><path fill="#B78B54" d="M526.212 72.2806L526.68 73.1458C528.474 76.3378 538.976 99.5943 538.663 101.816C538.61 102.209 538.564 102.603 538.526 102.998C537.384 100.961 535.559 96.3842 534.933 95.4304C533.771 92.5287 532.119 87.4703 532.398 93.8387L531.848 96.4384C529.896 88.5024 528.011 80.2614 526.212 72.2806Z"/><path fill="#B78B54" d="M792.412 537.273C793.493 535.905 806.478 528.609 809.02 527.178C805.747 531.127 802.454 534.26 798.944 537.963C795.767 541.316 792.575 545.423 789.109 548.395C789.375 544.702 798.723 536.18 801.485 533.233C800.083 534.114 792.395 539.112 791.541 538.946C791.841 538.38 792.166 537.87 792.412 537.273Z"/><path fill="#D1AB72" d="M228.089 483.938C228.567 483.825 229.002 483.62 229.48 483.533C230.157 484.875 224.146 490.408 223.125 491.496L222.325 492.364C226.333 490.02 229.688 487.686 233.903 485.663C229.821 490.506 226.07 492.053 220.361 494.789C222.696 491.025 225.392 487.441 228.089 483.938Z"/><path fill="#D1AB72" fill-opacity="0.23529412" d="M508.279 71.7778L510.546 70.3185C510.542 74.0552 510.727 75.5508 509.926 79.1354C509.745 76.2604 510.504 73.4427 508.585 76.5922L507.961 78.2589C507.57 75.1561 507.778 74.9597 508.279 71.7778Z"/><path fill="#B78B54" fill-opacity="0.89019608" d="M515.601 934.492C516.046 939.014 515.315 951.445 516.764 953.94C516.74 956.302 516.182 957.187 515.477 959.308C515.453 952.059 515.119 941.359 515.601 934.492Z"/><path fill="#D1AB72" d="M509.34 65.3574L510.58 64.5192C510.541 66.4388 510.664 68.4754 510.546 70.3185L508.279 71.7778C508.581 69.5435 509.108 67.5504 509.34 65.3574Z"/><path fill="#FAF0E6" fill-opacity="0.019607844" d="M532.398 93.8387C532.119 87.4703 533.771 92.5287 534.933 95.4304C533.445 95.9135 533.642 95.8926 532.863 94.457L532.398 93.8387Z"/><path fill="#543A27" d="M492.815 75.5834C491.994 78.05 491.687 79.7055 490.326 82.0086L489.231 82.007C490.472 79.0088 491.133 78.2713 492.815 75.5834Z"/><path fill="#D1AB72" fill-opacity="0.53333336" d="M497.917 948.544C498.115 949.256 499.123 953.184 498.745 953.709C498.276 953.744 496.91 950.146 496.714 949.684L497.917 948.544Z"/><path fill="#FAF0E6" fill-opacity="0.098039217" d="M476.888 105.797C478.978 101.502 479.477 102.726 477.661 106.61L476.888 105.797Z"/><path fill="#806437" d="M509.34 65.3574C509.39 65.147 509.608 64.2195 509.653 64.1085C509.739 63.892 509.91 63.2889 510.169 63.2108C510.216 63.2282 510.263 63.2455 510.31 63.2629C510.523 63.429 510.567 64.4054 510.58 64.5192L509.34 65.3574Z"/></svg>